<svg xmlns="http://www.w3.org/2000/svg" width="24" height="24" viewBox="0 0 24 24" fill="none">
<g clip-path="url(#clip0_3_104)">
<path d="M23.4172 10.5857L21.7803 8.94915C21.3918 8.56067 21.0735 7.79296 21.0735 7.2424V4.9279C21.0735 3.82691 20.174 2.92747 19.0733 2.92689H16.7579C16.208 2.92689 15.4394 2.60796 15.0509 2.21976L13.4143 0.58321C12.6367 -0.194403 11.3635 -0.194403 10.5859 0.58321L8.94931 2.22094C8.56048 2.60942 7.79101 2.92747 7.24227 2.92747H4.92777C3.82824 2.92747 2.92763 3.82691 2.92763 4.9279V7.24246C2.92763 7.79085 2.60935 8.56096 2.2208 8.94921L0.583954 10.5858C-0.194244 11.3634 -0.194244 12.6366 0.583954 13.4154L2.2208 15.052C2.60958 15.4405 2.92763 16.2103 2.92763 16.7587V19.0733C2.92763 20.1731 3.82824 21.0737 4.92777 21.0737H7.24233C7.79224 21.0737 8.56083 21.392 8.94937 21.7803L10.5859 23.4174C11.3635 24.1944 12.6367 24.1944 13.4144 23.4174L15.0509 21.7803C15.4398 21.3918 16.208 21.0737 16.758 21.0737H19.0734C20.1741 21.0737 21.0735 20.1731 21.0735 19.0733V16.7587C21.0735 16.2079 21.3921 15.4402 21.7804 15.052L23.4172 13.4154C24.1942 12.6366 24.1942 11.3633 23.4172 10.5857ZM10.4125 16.5003L5.9997 12.087L7.41395 10.673L10.4128 13.6719L16.586 7.50016L17.9999 8.91411L10.4125 16.5003Z" fill="#073863"/>
</g>
<defs>
<clipPath id="clip0_3_104">
<rect width="24" height="24" fill="white"/>
</clipPath>
</defs>
</svg>